<mxfile host="Electron" modified="2024-04-22T09:39:45.249Z" agent="Mozilla/5.0 (X11; Linux x86_64) AppleWebKit/537.36 (KHTML, like Gecko) draw.io/24.2.5 Chrome/120.0.6099.109 Electron/28.1.0 Safari/537.36" etag="hYms-1v6wE5JOWewzfyW" version="24.2.5" type="device">
  <diagram name="Pagina-1" id="ynFPcgzY67awaJtvJRBU">
    <mxGraphModel dx="1827" dy="590" grid="1" gridSize="10" guides="1" tooltips="1" connect="1" arrows="1" fold="1" page="1" pageScale="1" pageWidth="827" pageHeight="1169" math="0" shadow="0">
      <root>
        <mxCell id="0" />
        <mxCell id="1" parent="0" />
        <mxCell id="1bJkY0M_TkxH-qOlCy53-3" value="" style="endArrow=classic;html=1;rounded=0;endFill=1;" edge="1" parent="1">
          <mxGeometry width="50" height="50" relative="1" as="geometry">
            <mxPoint x="80" y="520" as="sourcePoint" />
            <mxPoint x="80" y="120" as="targetPoint" />
          </mxGeometry>
        </mxCell>
        <mxCell id="1bJkY0M_TkxH-qOlCy53-4" value="" style="endArrow=classic;html=1;rounded=0;endFill=1;" edge="1" parent="1">
          <mxGeometry width="50" height="50" relative="1" as="geometry">
            <mxPoint x="80" y="320" as="sourcePoint" />
            <mxPoint x="640" y="320" as="targetPoint" />
          </mxGeometry>
        </mxCell>
        <mxCell id="1bJkY0M_TkxH-qOlCy53-5" value="" style="pointerEvents=1;verticalLabelPosition=bottom;shadow=0;dashed=0;align=center;html=1;verticalAlign=top;shape=mxgraph.electrical.waveforms.sine_wave;strokeWidth=3;strokeColor=#FF0000;" vertex="1" parent="1">
          <mxGeometry x="80" y="214" width="240" height="212.18" as="geometry" />
        </mxCell>
        <mxCell id="1bJkY0M_TkxH-qOlCy53-7" value="" style="pointerEvents=1;verticalLabelPosition=bottom;shadow=0;dashed=0;align=center;html=1;verticalAlign=top;shape=mxgraph.electrical.waveforms.sine_wave;strokeWidth=3;strokeColor=#FF0000;" vertex="1" parent="1">
          <mxGeometry x="320" y="214" width="240" height="212.18" as="geometry" />
        </mxCell>
        <mxCell id="1bJkY0M_TkxH-qOlCy53-8" value="t" style="text;html=1;align=center;verticalAlign=middle;whiteSpace=wrap;rounded=0;fontSize=16;" vertex="1" parent="1">
          <mxGeometry x="620" y="330" width="60" height="30" as="geometry" />
        </mxCell>
        <mxCell id="1bJkY0M_TkxH-qOlCy53-9" value="" style="endArrow=classic;startArrow=classic;html=1;rounded=0;exitX=0.265;exitY=0.118;exitDx=0;exitDy=0;exitPerimeter=0;" edge="1" parent="1">
          <mxGeometry width="50" height="50" relative="1" as="geometry">
            <mxPoint x="79.99999999999991" y="439.03724" as="sourcePoint" />
            <mxPoint x="320" y="439" as="targetPoint" />
          </mxGeometry>
        </mxCell>
        <mxCell id="1bJkY0M_TkxH-qOlCy53-11" value="&lt;font style=&quot;font-size: 16px;&quot;&gt;Periodo (T)&lt;/font&gt;" style="text;html=1;align=center;verticalAlign=middle;whiteSpace=wrap;rounded=0;" vertex="1" parent="1">
          <mxGeometry x="155" y="410" width="90" height="30" as="geometry" />
        </mxCell>
        <mxCell id="1bJkY0M_TkxH-qOlCy53-12" value="V" style="text;html=1;align=center;verticalAlign=middle;whiteSpace=wrap;rounded=0;fontSize=16;" vertex="1" parent="1">
          <mxGeometry x="30" y="90" width="60" height="30" as="geometry" />
        </mxCell>
        <mxCell id="1bJkY0M_TkxH-qOlCy53-13" value="" style="endArrow=classic;startArrow=classic;html=1;rounded=0;exitX=0.265;exitY=0.118;exitDx=0;exitDy=0;exitPerimeter=0;" edge="1" parent="1">
          <mxGeometry width="50" height="50" relative="1" as="geometry">
            <mxPoint x="-40.000000000000085" y="240.03724" as="sourcePoint" />
            <mxPoint x="-40" y="320" as="targetPoint" />
          </mxGeometry>
        </mxCell>
        <mxCell id="1bJkY0M_TkxH-qOlCy53-14" value="&lt;font style=&quot;font-size: 16px;&quot;&gt;Ampiezza (A&lt;/font&gt;&lt;font style=&quot;font-size: 13.3333px;&quot;&gt;)&lt;/font&gt;" style="text;html=1;align=left;verticalAlign=middle;whiteSpace=wrap;rounded=0;" vertex="1" parent="1">
          <mxGeometry x="-30" y="270" width="100" height="30" as="geometry" />
        </mxCell>
      </root>
    </mxGraphModel>
  </diagram>
</mxfile>
